<svg width="163" height="145" viewBox="0 0 163 145" fill="none" xmlns="http://www.w3.org/2000/svg">
<rect width="163" height="145" fill="#121212"/>
<g clip-path="url(#clip0_45_99)">
<path d="M26.4649 11.9949C24.5398 11.6435 22.5526 11.9293 20.8045 12.8087C19.0563 13.6882 17.6424 15.1134 16.777 16.8686C15.9116 18.6237 15.6419 20.6131 16.0086 22.5353C16.3753 24.4575 17.3586 26.2079 18.8094 27.5211C20.2602 28.8343 22.0995 29.6389 24.0487 29.813C25.9978 29.987 27.9506 29.521 29.6111 28.4856C31.2716 27.4502 32.5495 25.9018 33.251 24.075C33.9525 22.2481 34.0395 20.2424 33.4987 18.3617" stroke="#212121" stroke-width="2" stroke-linecap="round" stroke-linejoin="round"/>
<path d="M23.8883 21.1257C23.9616 21.3806 24.1332 21.5959 24.3652 21.7243C24.5973 21.8527 24.8709 21.8837 25.1257 21.8104C25.3806 21.737 25.596 21.5655 25.7243 21.3334C25.8527 21.1014 25.8837 20.8278 25.8104 20.5729C25.7371 20.318 25.5655 20.1027 25.3335 19.9743C25.1014 19.8459 24.8278 19.815 24.5729 19.8883C24.3181 19.9616 24.1027 20.1331 23.9743 20.3652C23.8459 20.5973 23.815 20.8708 23.8883 21.1257Z" stroke="#212121" stroke-width="2" stroke-linecap="round" stroke-linejoin="round"/>
<path d="M29.3654 11.2262C29.4387 11.4811 29.6103 11.6964 29.8423 11.8248C30.0744 11.9532 30.348 11.9841 30.6028 11.9108C30.8577 11.8375 31.0731 11.666 31.2015 11.4339C31.3298 11.2018 31.3608 10.9283 31.2875 10.6734C31.2142 10.4185 31.0426 10.2032 30.8106 10.0748C30.5785 9.94637 30.3049 9.91543 30.05 9.98873C29.7952 10.062 29.5798 10.2336 29.4514 10.4657C29.323 10.6977 29.2921 10.9713 29.3654 11.2262Z" stroke="#212121" stroke-width="2" stroke-linecap="round" stroke-linejoin="round"/>
<path d="M30.3264 10.9498L29.7268 21.5276L27.877 24.1407" stroke="#212121" stroke-width="2" stroke-linecap="round" stroke-linejoin="round"/>
</g>
<path d="M36.2707 87.7087C36.3758 88.4666 36.1872 89.2361 35.7435 89.8596C35.2999 90.4831 34.6348 90.9135 33.8843 91.0628L33.7106 91.0918L32.7201 91.229C31.9621 91.334 31.1927 91.1455 30.5692 90.7018C29.9457 90.2582 29.5153 89.5931 29.366 88.8426L29.3369 88.6689L28.9254 85.6973C28.8204 84.9393 29.009 84.1699 29.4526 83.5464C29.8962 82.9229 30.5613 82.4925 31.3118 82.3432L31.4855 82.3141L32.476 82.1769C32.8237 82.1288 33.1657 82.142 33.49 82.2091L33.4666 82.0398C33.2155 80.2207 32.2598 78.5731 30.8053 77.4521C29.3508 76.3312 27.514 75.8267 25.691 76.0474C23.868 76.2681 22.2047 77.1963 21.0597 78.6319C19.9147 80.0675 19.3797 81.8956 19.57 83.722L19.5989 83.9603L19.6222 84.1287C19.8578 84.0072 20.1136 83.9153 20.3834 83.8587L20.5895 83.8231L21.58 83.6859C22.338 83.5809 23.1074 83.7695 23.7309 84.2131C24.3544 84.6568 24.7848 85.3219 24.9341 86.0724L24.9632 86.246L25.3747 89.2177C25.4797 89.9756 25.2912 90.7451 24.8475 91.3686C24.4039 91.9921 23.7388 92.4225 22.9883 92.5718L22.8146 92.6009L21.8241 92.738C21.0661 92.843 20.2967 92.6545 19.6732 92.2108C19.0497 91.7672 18.6193 91.1021 18.47 90.3516L18.4409 90.1779L17.6178 84.2347C17.2945 81.8935 17.905 79.519 19.3176 77.6242C20.7301 75.7293 22.8314 74.4662 25.1674 74.1075C27.5035 73.7489 29.8869 74.3235 31.8028 75.7073C33.7187 77.0911 35.0135 79.1731 35.4073 81.5034L35.4476 81.7654L36.2707 87.7087Z" fill="#212121"/>
<path d="M80.5139 22.0248L81.6041 14.6044C81.6619 14.2108 81.8737 13.8563 82.1929 13.6189C82.5121 13.3815 82.9126 13.2806 83.3062 13.3384C83.6998 13.3962 84.0543 13.608 84.2917 13.9272C84.5291 14.2464 84.63 14.6469 84.5722 15.0405L83.6274 21.4715" stroke="#212121" stroke-width="1.5" stroke-linecap="round" stroke-linejoin="round"/>
<path d="M84.5722 15.0405L84.8629 13.0617C84.8916 12.8668 84.9583 12.6795 85.0593 12.5104C85.1604 12.3413 85.2937 12.1937 85.4518 12.0762C85.6098 11.9586 85.7895 11.8733 85.9805 11.8252C86.1715 11.7771 86.3701 11.767 86.565 11.7957C86.7599 11.8243 86.9473 11.891 87.1164 11.9921C87.2855 12.0931 87.433 12.2265 87.5506 12.3845C87.6681 12.5426 87.7534 12.7222 87.8015 12.9132C87.8497 13.1043 87.8597 13.3029 87.8311 13.4978L86.5956 21.9075" stroke="#212121" stroke-width="1.5" stroke-linecap="round" stroke-linejoin="round"/>
<path d="M87.5404 15.4766C87.5982 15.083 87.81 14.7285 88.1292 14.491C88.4484 14.2536 88.8489 14.1527 89.2425 14.2105C89.6361 14.2683 89.9906 14.4802 90.228 14.7994C90.4654 15.1186 90.5663 15.519 90.5085 15.9126L89.5637 22.3436" stroke="#212121" stroke-width="1.5" stroke-linecap="round" stroke-linejoin="round"/>
<path d="M90.2178 17.8914C90.2756 17.4978 90.4874 17.1433 90.8066 16.9058C91.1258 16.6684 91.5263 16.5675 91.9199 16.6253C92.3135 16.6832 92.668 16.895 92.9054 17.2142C93.1429 17.5334 93.2438 17.9338 93.1859 18.3274L91.9504 26.7372C91.7191 28.3116 90.8719 29.7296 89.5951 30.6793C88.3182 31.629 86.7164 32.0326 85.142 31.8013L83.1633 31.5106L83.3691 31.5408C82.3859 31.3966 81.454 31.0104 80.657 30.417C79.86 29.8236 79.2228 29.0415 78.8027 28.141C78.7524 28.0327 78.7023 27.9243 78.6524 27.8157C78.4134 27.2964 77.6075 25.2485 76.2339 21.6709C76.0939 21.3062 76.1017 20.9013 76.2556 20.5422C76.4095 20.1832 76.6974 19.8983 77.0581 19.7483C77.4423 19.5883 77.869 19.5613 78.2703 19.6715C78.6716 19.7817 79.0246 20.0229 79.2732 20.3567L80.5139 22.0248" stroke="#212121" stroke-width="1.5" stroke-linecap="round" stroke-linejoin="round"/>
<path d="M83.7835 107.917L73.9823 110.327C73.7882 110.375 73.6129 110.479 73.4788 110.628C73.3448 110.776 73.2583 110.961 73.2304 111.159L71.6563 122.372C71.6194 122.634 71.6884 122.901 71.848 123.113C72.0076 123.324 72.2449 123.464 72.5075 123.501L86.3716 125.447C86.6342 125.484 86.9008 125.415 87.1125 125.255C87.3243 125.096 87.464 124.859 87.5009 124.596L89.0301 113.703C89.067 113.44 88.998 113.174 88.8384 112.962C88.6787 112.75 88.4415 112.61 88.1788 112.573L73.8196 110.558" stroke="#212121" stroke-width="1.5" stroke-linecap="round" stroke-linejoin="round"/>
<path d="M72.6294 115.44L88.474 117.664" stroke="#212121" stroke-width="1.5" stroke-linecap="round" stroke-linejoin="round"/>
<path d="M75.6003 115.857L75.8783 113.876" stroke="#212121" stroke-width="1.5" stroke-linecap="round" stroke-linejoin="round"/>
<path d="M84.9471 121.208L84.9457 121.218" stroke="#212121" stroke-width="1.5" stroke-linecap="round" stroke-linejoin="round"/>
<path d="M80.9859 120.652L80.9845 120.662" stroke="#212121" stroke-width="1.5" stroke-linecap="round" stroke-linejoin="round"/>
<path d="M130.826 20.3202C130.702 21.1062 130.896 21.909 131.365 22.5521C131.833 23.1952 132.538 23.6259 133.324 23.7494C134.11 23.8729 134.913 23.679 135.556 23.2105C136.199 22.7421 136.63 22.0373 136.753 21.2513C136.877 20.4653 136.683 19.6624 136.214 19.0193C135.746 18.3762 135.041 17.9455 134.255 17.8221C133.469 17.6986 132.666 17.8924 132.023 18.3609C131.38 18.8294 130.949 19.5342 130.826 20.3202Z" stroke="#212121" stroke-width="1.5" stroke-linecap="round" stroke-linejoin="round"/>
<path d="M143.612 16.2551C143.488 17.0411 143.682 17.844 144.15 18.4871C144.619 19.1302 145.324 19.5608 146.11 19.6843C146.896 19.8078 147.699 19.614 148.342 19.1455C148.985 18.677 149.415 17.9722 149.539 17.1862C149.662 16.4002 149.469 15.5973 149 14.9542C148.532 14.3111 147.827 13.8805 147.041 13.757C146.255 13.6335 145.452 13.8274 144.809 14.2958C144.166 14.7643 143.735 15.4691 143.612 16.2551Z" stroke="#212121" stroke-width="1.5" stroke-linecap="round" stroke-linejoin="round"/>
<path d="M141.749 28.1097C141.626 28.8957 141.82 29.6986 142.288 30.3417C142.757 30.9848 143.461 31.4155 144.247 31.5389C145.034 31.6624 145.836 31.4686 146.479 31.0001C147.123 30.5316 147.553 29.8268 147.677 29.0408C147.8 28.2548 147.606 27.452 147.138 26.8089C146.669 26.1658 145.965 25.7351 145.179 25.6116C144.393 25.4881 143.59 25.682 142.947 26.1505C142.304 26.6189 141.873 27.3237 141.749 28.1097Z" stroke="#212121" stroke-width="1.5" stroke-linecap="round" stroke-linejoin="round"/>
<path d="M136.659 19.9205L143.706 17.5859" stroke="#212121" stroke-width="1.5" stroke-linecap="round" stroke-linejoin="round"/>
<path d="M136.255 22.489L142.248 26.8721" stroke="#212121" stroke-width="1.5" stroke-linecap="round" stroke-linejoin="round"/>
<g clip-path="url(#clip1_45_99)">
<path d="M125 125C125 126.182 125.233 127.352 125.685 128.444C126.137 129.536 126.8 130.528 127.636 131.364C128.472 132.2 129.464 132.863 130.556 133.315C131.648 133.767 132.818 134 134 134C135.182 134 136.352 133.767 137.444 133.315C138.536 132.863 139.528 132.2 140.364 131.364C141.2 130.528 141.863 129.536 142.315 128.444C142.767 127.352 143 126.182 143 125C143 123.818 142.767 122.648 142.315 121.556C141.863 120.464 141.2 119.472 140.364 118.636C139.528 117.8 138.536 117.137 137.444 116.685C136.352 116.233 135.182 116 134 116C132.818 116 131.648 116.233 130.556 116.685C129.464 117.137 128.472 117.8 127.636 118.636C126.8 119.472 126.137 120.464 125.685 121.556C125.233 122.648 125 123.818 125 125Z" stroke="#212121" stroke-width="1.5" stroke-linecap="round" stroke-linejoin="round"/>
<path d="M130 124.973C132.5 123.5 135.5 124 137.5 125.5" stroke="#212121" stroke-width="1.5" stroke-linecap="round" stroke-linejoin="round"/>
<path d="M131 128C132.5 127 135 127 136 128.5" stroke="#212121" stroke-width="1.5" stroke-linecap="round" stroke-linejoin="round"/>
<path d="M129 122C131 121 135 120 139 122.5" stroke="#212121" stroke-width="1.5" stroke-linecap="round" stroke-linejoin="round"/>
</g>
<g clip-path="url(#clip2_45_99)">
<path d="M52.0662 59.2604C51.9408 60.0461 52.1326 60.8494 52.5994 61.4937C53.0663 62.138 53.77 62.5704 54.5557 62.6959C55.3414 62.8213 56.1447 62.6296 56.789 62.1627C57.4333 61.6958 57.8657 60.9922 57.9912 60.2065C58.1166 59.4208 57.9248 58.6174 57.458 57.9731C56.9911 57.3288 56.2874 56.8964 55.5017 56.771C54.716 56.6455 53.9127 56.8373 53.2684 57.3041C52.6241 57.771 52.1917 58.4747 52.0662 59.2604Z" stroke="#212121" stroke-width="1.5" stroke-linecap="round" stroke-linejoin="round"/>
<path d="M61.9411 60.8372C61.8157 61.6229 62.0075 62.4262 62.4743 63.0705C62.9412 63.7148 63.6449 64.1472 64.4306 64.2727C65.2163 64.3981 66.0196 64.2063 66.6639 63.7395C67.3082 63.2726 67.7406 62.5689 67.8661 61.7832C67.9915 60.9975 67.7997 60.1942 67.3329 59.5499C66.866 58.9056 66.1623 58.4732 65.3766 58.3477C64.5909 58.2223 63.7876 58.4141 63.1433 58.8809C62.499 59.3478 62.0666 60.0515 61.9411 60.8372Z" stroke="#212121" stroke-width="1.5" stroke-linecap="round" stroke-linejoin="round"/>
<path d="M57.9912 60.2065L60.041 47.3691L69.9159 48.9459L67.8661 61.7832" stroke="#212121" stroke-width="1.5" stroke-linecap="round" stroke-linejoin="round"/>
<path d="M59.4103 51.319L69.2852 52.8958" stroke="#212121" stroke-width="1.5" stroke-linecap="round" stroke-linejoin="round"/>
</g>
<g clip-path="url(#clip3_45_99)">
<path d="M19.5436 120.719C20.5583 120.56 21.5953 120.798 22.4399 121.382C23.2844 121.967 23.8717 122.854 24.0802 123.859L24.1109 124.057L25.725 134.432C25.7861 134.825 25.6886 135.227 25.4539 135.548C25.2192 135.869 24.8665 136.084 24.4734 136.145C24.0803 136.206 23.679 136.109 23.3578 135.874C23.0366 135.639 22.8218 135.286 22.7606 134.893L21.7615 128.471L20.7733 128.624C19.7586 128.784 18.7216 128.546 17.8771 127.962C17.0325 127.377 16.4452 126.49 16.2367 125.484L16.206 125.287C16.0429 124.239 16.3029 123.168 16.9289 122.312C17.5548 121.455 18.4953 120.883 19.5436 120.719Z" stroke="#212121" stroke-width="1.5" stroke-linecap="round" stroke-linejoin="round"/>
<path d="M31.4009 118.875C30.3858 119.031 29.4699 119.573 28.8428 120.386C28.2158 121.199 27.9257 122.223 28.0326 123.245L28.0634 123.442L29.6774 133.817C29.7386 134.21 29.9534 134.563 30.2746 134.798C30.5958 135.033 30.9971 135.13 31.3902 135.069C31.7833 135.008 32.136 134.793 32.3707 134.472C32.6054 134.151 32.7029 133.749 32.6418 133.356L31.6426 126.933L32.6307 126.78C33.6458 126.623 34.5618 126.082 35.1888 125.269C35.8159 124.455 36.106 123.432 35.999 122.41L35.9683 122.212C35.8052 121.164 35.2324 120.224 34.3758 119.598C33.5193 118.972 32.4492 118.712 31.4009 118.875Z" stroke="#212121" stroke-width="1.5" stroke-linecap="round" stroke-linejoin="round"/>
</g>
<path d="M101.176 83.1756C103.732 80.6803 102.589 76.3197 101.811 75.1384C101.198 78.1139 99.1177 79.4238 97.6617 80.4092C96.2066 81.3957 95.0488 83.1787 94.6935 84.9025C94.3722 86.461 94.6832 88.0833 95.5581 89.4125C96.433 90.7417 97.8 91.669 99.3586 91.9902C100.917 92.3115 102.539 92.0005 103.869 91.1256C105.198 90.2508 106.125 88.8837 106.446 87.3251C106.756 85.8247 106.208 83.2531 105.497 82.0243C103.142 84.602 102.158 84.3991 101.176 83.1756Z" stroke="#212121" stroke-width="1.5" stroke-linecap="round" stroke-linejoin="round"/>
<path d="M129.991 58.3059C130.054 57.7792 130.323 57.299 130.74 56.9709C131.157 56.6429 131.687 56.4939 132.214 56.5567L146.115 58.2137C146.642 58.2765 147.122 58.546 147.45 58.9628C147.778 59.3796 147.927 59.9097 147.865 60.4364L146.681 70.3661C146.618 70.8928 146.349 71.373 145.932 71.701C145.515 72.0291 144.985 72.1781 144.458 72.1153L130.557 70.4583C130.03 70.3955 129.55 70.126 129.222 69.7092C128.894 69.2924 128.745 68.7623 128.807 68.2356L129.991 58.3059Z" stroke="#212121" stroke-width="1.5" stroke-linecap="round" stroke-linejoin="round"/>
<path d="M134.529 70.9317L135.239 64.9739" stroke="#212121" stroke-width="1.5" stroke-linecap="round" stroke-linejoin="round"/>
<path d="M135.193 56.9117L134.246 64.8555L136.232 65.0922L137.179 57.1485" stroke="#212121" stroke-width="1.5" stroke-linecap="round" stroke-linejoin="round"/>
<path d="M140.486 71.6418L141.197 65.684" stroke="#212121" stroke-width="1.5" stroke-linecap="round" stroke-linejoin="round"/>
<path d="M141.15 57.6219L140.204 65.5657L142.19 65.8024L143.136 57.8587" stroke="#212121" stroke-width="1.5" stroke-linecap="round" stroke-linejoin="round"/>
<defs>
<clipPath id="clip0_45_99">
<rect width="24" height="24" fill="white" transform="translate(10 12.6337) rotate(-16.0457)"/>
</clipPath>
<clipPath id="clip1_45_99">
<rect width="24" height="24" fill="white" transform="translate(122 113)"/>
</clipPath>
<clipPath id="clip2_45_99">
<rect width="24" height="24" fill="white" transform="translate(51.7843 42) rotate(9.07222)"/>
</clipPath>
<clipPath id="clip3_45_99">
<rect width="24" height="24" fill="white" transform="translate(13 117.689) rotate(-8.84266)"/>
</clipPath>
</defs>
</svg>
